<svg width="540" height="100" viewBox="0 0 540 100" fill="none" xmlns="http://www.w3.org/2000/svg">
<path d="M540 0H0V100H540V0Z" fill="black"/>
<path d="M20 38.2235C20 41.9742 23.0406 45.0149 26.7914 45.0149C30.5422 45.0149 33.5828 41.9742 33.5828 38.2235C33.5828 34.4727 30.5422 31.4321 26.7914 31.4321C23.0406 31.4321 20 34.4727 20 38.2235Z" fill="#FFCC33"/>
<path d="M20 72.1804C20 75.9312 23.0406 78.9718 26.7914 78.9718C30.5422 78.9718 33.5828 75.9312 33.5828 72.1804C33.5828 68.4296 30.5422 65.389 26.7914 65.389C23.0406 65.389 20 68.4296 20 72.1804Z" fill="#FFCC33"/>
<path d="M22.5468 55.2023C22.5468 57.5466 24.4472 59.447 26.7915 59.447C29.1357 59.447 31.0361 57.5466 31.0361 55.2023C31.0361 52.858 29.1357 50.9576 26.7915 50.9576C24.4472 50.9576 22.5468 52.858 22.5468 55.2023Z" fill="#FFCC33"/>
<path d="M22.5468 21.2447C22.5468 23.589 24.4472 25.4894 26.7915 25.4894C29.1357 25.4894 31.0361 23.589 31.0361 21.2447C31.0361 18.9004 29.1357 17 26.7915 17C24.4472 17 22.5468 18.9004 22.5468 21.2447Z" fill="#FFCC33"/>
<path d="M46.0621 61.4838C46.0621 65.2346 49.1027 68.2752 52.8535 68.2752C56.6043 68.2752 59.6449 65.2346 59.6449 61.4838C59.6449 57.7331 56.6043 54.6924 52.8535 54.6924C49.1027 54.6924 46.0621 57.7331 46.0621 61.4838Z" fill="#FFCC33"/>
<path d="M48.6088 78.4627C48.6088 80.8069 50.5092 82.7074 52.8535 82.7074C55.1978 82.7074 57.0982 80.8069 57.0982 78.4627C57.0982 76.1184 55.1978 74.218 52.8535 74.218C50.5092 74.218 48.6088 76.1184 48.6088 78.4627Z" fill="#FFCC33"/>
<path d="M48.6088 44.5056C48.6088 46.8499 50.5092 48.7503 52.8535 48.7503C55.1978 48.7503 57.0982 46.8499 57.0982 44.5056C57.0982 42.1613 55.1978 40.2609 52.8535 40.2609C50.5092 40.2609 48.6088 42.1613 48.6088 44.5056Z" fill="#FFCC33"/>
<path d="M48.6088 27.5268C48.6088 29.8711 50.5092 31.7715 52.8535 31.7715C55.1978 31.7715 57.0982 29.8711 57.0982 27.5268C57.0982 25.1825 55.1978 23.2821 52.8535 23.2821C50.5092 23.2821 48.6088 25.1825 48.6088 27.5268Z" fill="#FFCC33"/>
<path d="M72.1244 38.2235C72.1244 41.9742 75.165 45.0149 78.9158 45.0149C82.6666 45.0149 85.7072 41.9742 85.7072 38.2235C85.7072 34.4727 82.6666 31.4321 78.9158 31.4321C75.165 31.4321 72.1244 34.4727 72.1244 38.2235Z" fill="#FFCC33"/>
<path d="M74.6711 21.2447C74.6711 23.589 76.5716 25.4894 78.9158 25.4894C81.2601 25.4894 83.1605 23.589 83.1605 21.2447C83.1605 18.9004 81.2601 17 78.9158 17C76.5716 17 74.6711 18.9004 74.6711 21.2447Z" fill="#FFCC33"/>
<path d="M74.6711 55.2023C74.6711 57.5466 76.5716 59.447 78.9158 59.447C81.2601 59.447 83.1605 57.5466 83.1605 55.2023C83.1605 52.858 81.2601 50.9576 78.9158 50.9576C76.5716 50.9576 74.6711 52.858 74.6711 55.2023Z" fill="#FFCC33"/>
<path d="M74.6711 72.1805C74.6711 74.5247 76.5716 76.4251 78.9158 76.4251C81.2601 76.4251 83.1605 74.5247 83.1605 72.1805C83.1605 69.8362 81.2601 67.9358 78.9158 67.9358C76.5716 67.9358 74.6711 69.8362 74.6711 72.1805Z" fill="#FFCC33"/>
<path d="M141.402 67.8438H143.773L153.095 33.5456L157.728 32.8849V30.6277H145.208V32.8849L150.227 33.6006L143.222 59.0352L135.003 33.5456L140.574 32.8849V30.6277H125.572V32.8849L131.087 33.5456L122.703 58.815L115.919 33.4905L120.993 32.8849V30.6277H105.991V32.8849L110.569 33.4355L120.497 67.8438H122.869L131.859 39.2711L141.402 67.8438Z" fill="white"/>
<path d="M169.125 43.1248C172.545 43.1248 175.137 45.9326 175.137 49.0706C175.137 50.6671 174.531 51.9334 171.883 51.9334H161.844C162.451 45.5472 166.036 43.1248 169.125 43.1248ZM169.456 40.5924C162.561 40.5924 156.77 46.2078 156.77 54.631C156.77 63.0541 161.624 68.1741 169.07 68.1741C174.089 68.1741 177.619 65.6967 179.66 61.7879L178.336 60.7419C176.351 63.0541 174.2 64.5956 170.67 64.5956C165.374 64.5956 161.844 61.0172 161.734 54.2456H179.329C179.55 53.5299 179.715 52.4288 179.715 51.1626C179.715 44.5012 175.192 40.5924 169.456 40.5924Z" fill="white"/>
<path d="M190.844 34.5365C192.885 34.5365 194.54 33.0501 194.54 31.0131C194.54 28.866 192.885 27.4897 190.844 27.4897C188.748 27.4897 187.149 28.866 187.149 31.0131C187.149 33.0501 188.748 34.5365 190.844 34.5365ZM197.132 65.4765L193.271 64.7057C193.216 61.9531 193.161 58.3196 193.161 55.8972V48.6302L193.326 41.1429L192.499 40.5924L184.005 43.9506V45.8775L188.417 46.373C188.528 48.5751 188.583 50.2818 188.583 53.3097V55.8972C188.583 58.3196 188.528 61.9531 188.472 64.7057L184.336 65.4765V67.4584H197.132V65.4765Z" fill="white"/>
<path d="M212.127 42.8496C215.546 42.8496 217.532 45.5472 217.532 49.456C217.532 53.5299 215.436 56.4477 211.906 56.4477C208.486 56.4477 206.556 53.6951 206.556 49.6762C206.556 45.6573 208.652 42.8496 212.127 42.8496ZM202.088 49.6211C202.088 53.3648 203.688 55.9523 206.335 57.3836C203.577 59.9161 202.584 61.7879 202.584 63.4946C202.584 65.6416 203.798 67.018 206.225 67.6786C202.143 69.6605 200.819 71.5874 200.819 73.9547C200.819 77.8635 204.239 80.6161 212.237 80.6161C221.283 80.6161 225.861 75.8815 225.861 71.0919C225.861 66.6326 223.048 63.99 216.981 63.99H209.755C207.163 63.99 206.556 63.0541 206.556 61.5677C206.556 60.3015 206.997 59.2555 207.935 58.0443C209.148 58.4297 210.527 58.6499 212.016 58.6499C217.753 58.6499 222 55.4017 222 49.6211C222 47.6392 221.559 45.9326 220.731 44.6113H226.137V41.1429L225.309 40.5924L219.076 42.7395C217.311 41.3081 214.885 40.5924 212.072 40.5924C206.335 40.5924 202.088 43.8405 202.088 49.6211ZM212.458 78.0837C208.1 78.0837 205.342 76.6523 205.342 73.0738C205.342 71.2571 205.949 69.7706 207.493 68.119C208.21 68.1741 208.983 68.2291 209.755 68.2291H216.208C220.18 68.2291 221.724 70.101 221.724 72.5233C221.724 75.6063 218.47 78.0837 212.458 78.0837Z" fill="white"/>
<path d="M232.745 55.8972C232.745 58.3196 232.69 61.9531 232.635 64.7057L228.498 65.4765V67.4584H241.295V65.4765L237.489 64.7057C237.434 61.9531 237.378 58.3196 237.378 55.8972V48.1347C240.191 45.6022 242.453 44.5562 245.156 44.5562C248.41 44.5562 249.678 46.1528 249.678 51.2177V55.8972C249.678 58.4297 249.623 62.0081 249.568 64.7608L245.542 65.4765V67.4584H258.338V65.4765L254.477 64.7057C254.422 61.9531 254.367 58.4297 254.367 55.8972V50.7773C254.367 43.5653 252.05 40.5924 247.307 40.5924C243.832 40.5924 239.916 42.6844 237.213 45.7123V35.032L237.434 27.2144L236.661 26.774L228.222 29.2514V31.1783L232.745 31.7288V55.8972Z" fill="white"/>
<path d="M269.464 61.2924V44.2259H276.965V41.3081H269.574L269.85 33.8208H266.54L265.106 41.198L260.197 41.8036V44.2259H264.775V57.2185C264.775 59.3656 264.72 60.5217 264.72 61.898C264.72 66.1922 267.147 68.1741 271.008 68.1741C273.821 68.1741 276.082 67.1281 277.516 65.2563L276.193 63.8249C274.814 64.8158 273.711 65.3113 272.497 65.3113C270.622 65.3113 269.464 64.1001 269.464 61.2924Z" fill="white"/>
<path d="M288.669 68.1741C295.784 68.1741 299.425 64.4855 299.425 60.3015C299.425 56.8331 297.329 54.2456 291.813 52.2086L290.103 51.603C286.352 50.2267 285.029 49.2908 285.029 46.8685C285.029 44.6113 286.794 43.1248 290.158 43.1248C291.482 43.1248 292.751 43.4552 293.964 44.0607L294.847 48.465H297.715L297.935 42.8496C295.564 41.4182 293.192 40.5924 290.213 40.5924C284.036 40.5924 280.616 44.336 280.616 48.3549C280.616 52.0985 283.264 54.3007 287.29 55.7871L289.827 56.723C293.302 57.9342 294.957 59.1454 294.957 61.5126C294.957 63.99 292.971 65.6967 288.779 65.6967C287.069 65.6967 285.635 65.4214 284.312 64.8158L283.264 60.0262H280.23L280.451 66.0821C283.153 67.4584 285.58 68.1741 288.669 68.1741Z" fill="white"/>
<path d="M326.672 43.0698C324.631 40.5373 324.19 38.8307 324.19 36.8488C324.19 33.9309 326.396 31.7288 329.209 31.7288C331.912 31.7288 334.008 33.7107 334.008 36.9038C334.008 40.0969 331.581 42.5193 328.161 44.8865C327.665 44.336 327.168 43.7304 326.672 43.0698ZM351.382 67.6236L351.603 65.2012L346.253 64.4855C344.543 62.7238 343.109 61.1273 341.73 59.6959C344.267 55.8972 346.198 51.8233 347.466 46.8134L351.658 46.0427V43.8405H340.461V46.0427L344.819 46.7584C343.826 51.1076 342.281 54.686 340.241 58.0993C338.09 55.7871 336.104 53.6951 333.898 51.2727C331.967 49.1807 330.643 47.6943 329.485 46.373C335.111 43.3451 337.648 40.6474 337.648 36.8488C337.648 32.7198 334.725 29.8019 329.264 29.8019C324.08 29.8019 320.219 32.7748 320.219 37.6195C320.219 40.5373 321.267 43.3451 324.024 46.4831C324.08 46.5932 324.19 46.6483 324.245 46.7584C318.729 49.511 315.916 53.1996 315.916 58.1544C315.916 63.7148 320.66 68.1741 327.555 68.1741C332.85 68.1741 336.38 66.1371 338.807 63.4946C339.413 64.2103 340.075 64.8709 340.737 65.6416C342.557 67.5135 344.267 68.1741 347.191 68.1741C348.625 68.1741 349.728 68.0089 351.382 67.6236ZM331.581 55.4017C333.456 57.4937 335.221 59.4757 337.207 61.7329C335.111 63.6047 332.133 64.6507 329.044 64.6507C323.693 64.6507 320.715 60.6868 320.715 56.6679C320.715 53.9153 321.763 50.6121 325.569 48.2999C327.389 50.3919 329.099 52.3738 331.581 55.4017Z" fill="white"/>
<path d="M374.611 50.3919C374.611 55.1815 374.611 59.9711 374.5 64.5956L369.426 65.2012V67.4584H384.594C395.184 67.4584 399.321 62.3935 399.321 57.3836C399.321 52.9243 396.232 49.3459 388.896 48.2999C395.019 47.0336 397.446 43.5102 397.446 39.6014C397.446 34.3714 393.088 30.6277 385.421 30.6277H369.426V32.8849L374.5 33.4905C374.611 38.2251 374.611 42.9597 374.611 47.6943V50.3919ZM382.884 49.6762C390.496 49.6762 393.805 52.2637 393.805 57.3836C393.805 62.2283 390.386 64.8709 383.325 64.8709H379.961C379.85 60.1914 379.85 55.4568 379.85 49.6762H382.884ZM383.767 33.1602C389.393 33.1602 392.261 34.977 392.261 39.9868C392.261 44.9967 389.393 47.1437 382.719 47.1437H379.85C379.85 42.7945 379.85 37.8948 379.961 33.1602H383.767Z" fill="white"/>
<path d="M410.127 34.5365C412.168 34.5365 413.822 33.0501 413.822 31.0131C413.822 28.866 412.168 27.4897 410.127 27.4897C408.031 27.4897 406.431 28.866 406.431 31.0131C406.431 33.0501 408.031 34.5365 410.127 34.5365ZM416.415 65.4765L412.554 64.7057C412.498 61.9531 412.443 58.3196 412.443 55.8972V48.6302L412.609 41.1429L411.781 40.5924L403.287 43.9506V45.8775L407.7 46.373C407.81 48.5751 407.865 50.2818 407.865 53.3097V55.8972C407.865 58.3196 407.81 61.9531 407.755 64.7057L403.618 65.4765V67.4584H416.415V65.4765Z" fill="white"/>
<path d="M441.062 68.0089C442.992 68.0089 444.537 67.2932 445.86 65.1462L444.757 63.935C444.151 64.6507 443.544 65.1462 442.606 65.1462C441.393 65.1462 440.62 64.2653 440.62 61.898V50.1717C440.62 43.2349 437.863 40.5924 432.071 40.5924C426.445 40.5924 422.363 43.2349 421.315 47.419C421.481 48.8504 422.363 49.6762 423.908 49.6762C425.397 49.6762 426.28 48.7403 426.776 47.0336L427.824 43.4552C428.982 43.1799 429.975 43.1248 430.802 43.1248C434.443 43.1248 435.987 44.4461 435.987 49.7863V51.1626C433.781 51.6581 431.464 52.3738 429.754 52.9794C422.308 55.677 420.598 58.1544 420.598 61.2924C420.598 65.8619 423.963 68.1741 427.989 68.1741C431.244 68.1741 433.064 66.7427 436.098 63.7698C436.539 66.3573 438.414 68.0089 441.062 68.0089ZM425.507 60.4666C425.507 58.815 426.114 56.723 430.913 54.8512C432.071 54.4108 434.057 53.7501 435.987 53.1996V61.6778C432.843 63.8799 431.795 64.5406 429.92 64.5406C427.383 64.5406 425.507 63.3845 425.507 60.4666Z" fill="white"/>
<path d="M457.211 68.1741C464.326 68.1741 467.967 64.4855 467.967 60.3015C467.967 56.8331 465.871 54.2456 460.355 52.2086L458.645 51.603C454.895 50.2267 453.571 49.2908 453.571 46.8685C453.571 44.6113 455.336 43.1248 458.7 43.1248C460.024 43.1248 461.293 43.4552 462.506 44.0607L463.389 48.465H466.257L466.478 42.8496C464.106 41.4182 461.734 40.5924 458.756 40.5924C452.578 40.5924 449.158 44.336 449.158 48.3549C449.158 52.0985 451.806 54.3007 455.832 55.7871L458.369 56.723C461.844 57.9342 463.499 59.1454 463.499 61.5126C463.499 63.99 461.513 65.6967 457.321 65.6967C455.612 65.6967 454.178 65.4214 452.854 64.8158L451.806 60.0262H448.772L448.993 66.0821C451.695 67.4584 454.122 68.1741 457.211 68.1741Z" fill="white"/>
<path d="M484.933 43.1248C488.353 43.1248 490.945 45.9326 490.945 49.0706C490.945 50.6671 490.338 51.9334 487.691 51.9334H477.652C478.259 45.5472 481.844 43.1248 484.933 43.1248ZM485.264 40.5924C478.369 40.5924 472.578 46.2078 472.578 54.631C472.578 63.0541 477.431 68.1741 484.878 68.1741C489.897 68.1741 493.427 65.6967 495.468 61.7879L494.144 60.7419C492.159 63.0541 490.007 64.5956 486.477 64.5956C481.182 64.5956 477.652 61.0172 477.542 54.2456H495.137C495.358 53.5299 495.523 52.4288 495.523 51.1626C495.523 44.5012 491 40.5924 485.264 40.5924Z" fill="white"/>
<path d="M509.244 68.1741C516.36 68.1741 520 64.4855 520 60.3015C520 56.8331 517.904 54.2456 512.388 52.2086L510.678 51.603C506.928 50.2267 505.604 49.2908 505.604 46.8685C505.604 44.6113 507.369 43.1248 510.734 43.1248C512.057 43.1248 513.326 43.4552 514.539 44.0607L515.422 48.465H518.29L518.511 42.8496C516.139 41.4182 513.767 40.5924 510.789 40.5924C504.611 40.5924 501.191 44.336 501.191 48.3549C501.191 52.0985 503.839 54.3007 507.865 55.7871L510.403 56.723C513.878 57.9342 515.532 59.1454 515.532 61.5126C515.532 63.99 513.547 65.6967 509.355 65.6967C507.645 65.6967 506.211 65.4214 504.887 64.8158L503.839 60.0262H500.805L501.026 66.0821C503.729 67.4584 506.156 68.1741 509.244 68.1741Z" fill="white"/>
</svg>
